<svg width="16" height="19" viewBox="0 0 16 19" fill="none" xmlns="http://www.w3.org/2000/svg">
<path d="M2 4H15V15C15 16.6569 13.6569 18 12 18H5C3.34315 18 2 16.6569 2 15V4Z" stroke="#F18303" stroke-linecap="round" stroke-linejoin="round"/>
<line x1="11.5" y1="6.5" x2="11.5" y2="14.5" stroke="#F18303" stroke-linecap="round" stroke-linejoin="round"/>
<line x1="8.5" y1="6.5" x2="8.5" y2="14.5" stroke="#F18303" stroke-linecap="round" stroke-linejoin="round"/>
<line x1="4.5" y1="6.5" x2="4.5" y2="14.5" stroke="#F18303" stroke-linecap="round" stroke-linejoin="round"/>
<path d="M6.21213 2.04097C6.51597 2.04097 6.76425 1.80866 6.93733 1.55524C7.16647 1.21973 7.54861 1 7.98133 1C8.41405 1 8.7962 1.21973 9.02534 1.55524C9.19841 1.80866 9.4467 2.04097 9.75054 2.04097H14.1177C14.7596 2.04097 15.28 2.56906 15.28 3.22048C15.28 3.87191 14.7596 4.4 14.1177 4.4H2.16232C1.52039 4.4 1 3.87191 1 3.22048C1 2.56906 1.52039 2.04097 2.16233 2.04097H6.21213Z" stroke="#F18303" stroke-linecap="round" stroke-linejoin="round"/>
</svg>
